<?xml version="1.0" encoding="UTF-8"?>
<svg xmlns="http://www.w3.org/2000/svg" version="1.1" width="400" height="400" viewBox="0 0 400 400"><rect x="0" y="0" width="400" height="400" fill="#ffffff"/><g transform="scale(16)"><g transform="translate(0,0)"><path fill-rule="evenodd" d="M8 0L8 1L9 1L9 2L10 2L10 3L11 3L11 1L12 1L12 2L13 2L13 3L12 3L12 4L16 4L16 3L17 3L17 2L16 2L16 3L14 3L14 2L15 2L15 1L13 1L13 0L10 0L10 1L9 1L9 0ZM16 0L16 1L17 1L17 0ZM9 4L9 5L10 5L10 8L9 8L9 6L8 6L8 8L9 8L9 9L7 9L7 8L6 8L6 9L5 9L5 8L3 8L3 9L4 9L4 10L2 10L2 8L0 8L0 9L1 9L1 10L2 10L2 12L1 12L1 13L0 13L0 17L1 17L1 15L3 15L3 16L2 16L2 17L5 17L5 16L4 16L4 15L3 15L3 14L1 14L1 13L2 13L2 12L3 12L3 13L5 13L5 12L4 12L4 10L5 10L5 11L7 11L7 10L10 10L10 11L8 11L8 13L10 13L10 12L11 12L11 11L13 11L13 10L12 10L12 9L13 9L13 8L15 8L15 10L14 10L14 11L15 11L15 12L14 12L14 13L13 13L13 12L12 12L12 13L11 13L11 14L12 14L12 15L11 15L11 16L9 16L9 14L5 14L5 15L8 15L8 18L9 18L9 17L10 17L10 19L9 19L9 20L8 20L8 22L9 22L9 21L11 21L11 22L10 22L10 23L8 23L8 25L9 25L9 24L10 24L10 25L13 25L13 23L14 23L14 24L15 24L15 23L18 23L18 22L19 22L19 24L16 24L16 25L19 25L19 24L21 24L21 25L22 25L22 24L24 24L24 25L25 25L25 21L24 21L24 20L25 20L25 18L24 18L24 16L25 16L25 14L24 14L24 13L25 13L25 10L24 10L24 9L25 9L25 8L24 8L24 9L19 9L19 8L18 8L18 9L19 9L19 10L16 10L16 8L17 8L17 5L16 5L16 8L15 8L15 6L14 6L14 7L13 7L13 6L12 6L12 5L10 5L10 4ZM11 6L11 9L10 9L10 10L11 10L11 9L12 9L12 8L13 8L13 7L12 7L12 6ZM6 9L6 10L7 10L7 9ZM20 10L20 11L21 11L21 10ZM22 10L22 11L24 11L24 10ZM17 11L17 12L16 12L16 13L17 13L17 14L16 14L16 16L15 16L15 17L14 17L14 18L13 18L13 17L12 17L12 16L14 16L14 15L15 15L15 13L14 13L14 15L12 15L12 16L11 16L11 18L12 18L12 19L10 19L10 20L11 20L11 21L12 21L12 23L10 23L10 24L12 24L12 23L13 23L13 22L16 22L16 21L14 21L14 20L15 20L15 19L16 19L16 16L17 16L17 15L18 15L18 14L20 14L20 16L21 16L21 18L22 18L22 19L21 19L21 20L22 20L22 22L21 22L21 21L19 21L19 22L21 22L21 24L22 24L22 22L23 22L23 19L24 19L24 18L23 18L23 17L22 17L22 15L21 15L21 14L23 14L23 13L24 13L24 12L20 12L20 13L18 13L18 12L19 12L19 11ZM6 12L6 13L7 13L7 12ZM12 13L12 14L13 14L13 13ZM20 13L20 14L21 14L21 13ZM23 15L23 16L24 16L24 15ZM6 16L6 17L7 17L7 16ZM17 17L17 20L20 20L20 17ZM18 18L18 19L19 19L19 18ZM12 19L12 21L13 21L13 20L14 20L14 19ZM0 0L0 7L7 7L7 0ZM1 1L1 6L6 6L6 1ZM2 2L2 5L5 5L5 2ZM18 0L18 7L25 7L25 0ZM19 1L19 6L24 6L24 1ZM20 2L20 5L23 5L23 2ZM0 18L0 25L7 25L7 18ZM1 19L1 24L6 24L6 19ZM2 20L2 23L5 23L5 20Z" fill="#000000"/></g></g></svg>
